<?xml version="1.0" encoding="UTF-8"?>
<svg width="752pt" height="752pt" version="1.1" viewBox="0 0 752 752" xmlns="http://www.w3.org/2000/svg">
 <g>
  <path d="m522.34 419.1c-3.5547-3.5586-8.375-5.5547-13.402-5.5547-5.0312 0-9.8516 1.9961-13.402 5.5547l-24.816 24.816-24.816-24.816c-4.7891-4.7891-11.766-6.6602-18.309-4.9062-6.5391 1.7539-11.648 6.8633-13.402 13.402-1.7539 6.543 0.11719 13.52 4.9062 18.309l24.816 24.816-24.816 24.816c-4.7891 4.7852-6.6602 11.766-4.9062 18.305 1.7539 6.543 6.8633 11.652 13.402 13.402 6.543 1.7539 13.52-0.11719 18.309-4.9023l24.816-24.816 24.816 24.816c4.7852 4.7852 11.766 6.6562 18.305 4.9023 6.543-1.75 11.652-6.8594 13.402-13.402 1.7539-6.5391-0.11719-13.52-4.9023-18.305l-24.816-24.816 24.816-24.816c3.5547-3.5547 5.5547-8.375 5.5547-13.402s-2-9.8477-5.5547-13.402z"/>
  <path d="m281.29 522.81h75.773c6.7656 0 13.02-3.6133 16.406-9.4727 3.3828-5.8594 3.3828-13.082 0-18.941-3.3867-5.8633-9.6406-9.4727-16.406-9.4727h-75.773c-5.0234 0-9.8438-1.9961-13.395-5.5508-3.5547-3.5508-5.5469-8.3711-5.5469-13.395v-189.43c0-5.0273 1.9922-9.8438 5.5469-13.395 3.5508-3.5547 8.3711-5.5508 13.395-5.5508h77.383l26.805 26.805c7.1133 7.1055 16.754 11.09 26.805 11.082h58.441c5.0234 0 9.8398 1.9961 13.395 5.5469 3.5508 3.5547 5.5469 8.3711 5.5469 13.398v42.621c0 6.7656 3.6094 13.02 9.4727 16.406 5.8594 3.3828 13.082 3.3828 18.941 0 5.8633-3.3867 9.4727-9.6406 9.4727-16.406v-42.621c0-15.074-5.9883-29.527-16.645-40.188-10.656-10.656-25.113-16.645-40.184-16.645h-58.441l-26.805-26.805c-7.1094-7.1016-16.754-11.09-26.805-11.082h-77.383c-15.07 0-29.527 5.9883-40.184 16.645-10.66 10.66-16.645 25.113-16.645 40.188v189.43c0 15.074 5.9844 29.527 16.645 40.188 10.656 10.656 25.113 16.645 40.184 16.645z"/>
 </g>
</svg>
