<?xml version="1.0" encoding="UTF-8"?>
<svg width="752pt" height="752pt" version="1.1" viewBox="0 0 752 752" xmlns="http://www.w3.org/2000/svg">
 <path d="m549.88 191.62h-94.57v-19.941c-0.007813-5.3047-2.1172-10.391-5.8672-14.141-3.7539-3.7539-8.8398-5.8633-14.145-5.8711h-118.58c-5.3086 0.007813-10.395 2.1172-14.145 5.8711-3.75 3.75-5.8594 8.8359-5.8672 14.141v19.941h-94.57c-11.793 0.015625-23.098 4.707-31.434 13.047-8.3359 8.3359-13.027 19.641-13.039 31.434v30.457c0 3.7188 1.4766 7.2852 4.1055 9.9141 2.6328 2.6289 6.1992 4.1055 9.918 4.1055h16.328l47.742 290.68c1.3125 8.1289 5.4805 15.523 11.754 20.852 6.2773 5.332 14.25 8.2461 22.484 8.2188h212.03c8.2305 0.023437 16.203-2.8906 22.48-8.2188s10.445-12.723 11.754-20.852l47.742-290.68h16.336c3.7188 0 7.2852-1.4766 9.9141-4.1055 2.6289-2.6289 4.1055-6.1953 4.1055-9.9141v-30.457c-0.015625-11.793-4.7031-23.098-13.039-31.434-8.3359-8.3398-19.641-13.031-31.434-13.047zm-225.14-11.91h102.52v11.91h-102.52zm163.84 387c-0.48438 3.2383-3.2891 5.625-6.5625 5.5781h-212.03c-3.2734 0.046876-6.0781-2.3359-6.5664-5.5742l-47-286.14 319.16 0.003907zm77.734-314.17h-380.62v-16.453c0-4.3633 1.7344-8.5469 4.8203-11.633 3.082-3.082 7.2695-4.8164 11.629-4.8164h347.73c4.3633 0 8.5469 1.7344 11.633 4.8164 3.0859 3.0859 4.8164 7.2695 4.8164 11.633zm-287.11 95.895c-0.47266-3.7852 0.625-7.5977 3.0273-10.559 2.4062-2.9609 5.9141-4.8164 9.7148-5.1328 3.8008-0.31641 7.5703 0.92578 10.434 3.4492 2.8594 2.5195 4.5742 6.0977 4.7383 9.9102l13.23 158.32c0.64453 7.7109-5.0742 14.484-12.781 15.141-0.39453 0.03125-0.78906 0.050782-1.1797 0.050782-7.2891-0.007813-13.355-5.5938-13.961-12.855zm152.43 155.99 13.23-158.34c0.64453-7.7148 7.4219-13.445 15.137-12.805 7.7188 0.64453 13.449 7.4219 12.805 15.141l-13.23 158.32c-0.60547 7.2617-6.6719 12.848-13.957 12.855-0.39453 0-0.78906 0-1.1875-0.050781-7.707-0.64844-13.43-7.4141-12.797-15.125zm-69.645 1.1836v-158.34c-0.070313-3.7656 1.375-7.3984 4.0117-10.086 2.6367-2.6875 6.2422-4.2031 10.008-4.2031s7.3711 1.5156 10.008 4.2031 4.082 6.3203 4.0117 10.086v158.34c0.070312 3.7656-1.375 7.3984-4.0117 10.086s-6.2422 4.2031-10.008 4.2031-7.3711-1.5156-10.008-4.2031c-2.6367-2.6875-4.082-6.3203-4.0117-10.086z"/>
</svg>
